<svg width="100%" height="100%" viewBox="0 0 137 40" fill="none" xmlns="http://www.w3.org/2000/svg"><g clip-path="url(#a)" fill="#000"><path d="M17.032 28.812c0-3-1.78-5.164-6.248-5.677 0-.607 0-1.196.02-1.746H6.334c0 .57.02 1.158.02 1.746-4.412.532-6.192 2.677-6.192 5.677 0 3.038 1.818 5.164 6.191 5.677 0 .588-.019 1.158-.019 1.708h4.468c-.019-.531-.019-1.1-.038-1.69 4.468-.512 6.267-2.638 6.267-5.695zm-6.267 1.918c0-.722 0-1.424.02-2.127 0-.55.018-1.12.018-1.67 1.23.303 1.742.949 1.742 1.879 0 .968-.53 1.614-1.78 1.918zM4.65 28.812c0-.93.511-1.576 1.742-1.88v3.779c-1.23-.304-1.742-.95-1.742-1.899zM59.253 36.387c2.82 0 6.588-.721 7.99-4.12-1.401-.607-2.803-1.253-3.976-1.88-.587 1.5-1.742 2.184-3.863 2.184-2.65 0-3.786-1.424-3.88-3.208-.096-1.766.889-3.55 3.596-3.55 1.42 0 3.351.53 4.147 2.088 1.192-.608 2.48-1.234 3.994-1.766-1.495-3.038-4.506-4.12-8.008-4.12-5.964 0-8.33 3.057-8.33 7.348 0 4.347 2.442 7.024 8.33 7.024zM84.731 28.812c0-3-1.78-5.164-6.247-5.677 0-.607 0-1.196.019-1.746h-4.469c0 .57.02 1.158.02 1.746-4.412.532-6.192 2.677-6.192 5.677 0 3.038 1.818 5.164 6.192 5.677 0 .588-.02 1.158-.02 1.708h4.469c-.02-.531-.02-1.1-.038-1.69 4.468-.512 6.266-2.638 6.266-5.695zm-6.266 1.918c0-.722 0-1.424.019-2.127 0-.55.019-1.12.019-1.67 1.23.303 1.742.949 1.742 1.879 0 .968-.53 1.614-1.78 1.918zm-6.115-1.918c0-.93.51-1.576 1.741-1.88v3.779c-1.23-.304-1.741-.95-1.741-1.899zM94.234 36.387c6.078 0 8.444-2.829 8.444-7.195 0-4.291-2.366-7.177-8.444-7.177-6.058 0-8.425 2.886-8.425 7.177 0 4.347 2.443 7.195 8.425 7.195zm0-3.873c-2.82 0-3.938-1.12-3.938-3.322 0-2.165 1.099-3.304 3.938-3.304 2.86 0 3.957 1.14 3.957 3.304 0 2.221-1.098 3.322-3.957 3.322zM108.577 22.433v-.02h-4.658c.19 4.595.19 9.19 0 13.784h4.658v-3.341h3.938c5.377 0 6.721-2.202 6.721-5.316 0-2.924-1.344-5.107-6.721-5.107h-3.938zm0 6.759v-3h2.613c3.124 0 3.767.266 3.767 1.48 0 1.235-.719 1.52-3.767 1.52h-2.613zM135.219 22.433l-13.324-.02c0 3.152.076 6.893-.151 8.108-.284 1.538-.834 2.088-1.894 2.297h-.946v6.569h4.487v-2.81h8.879v2.753h4.485v-6.512h-1.536V22.433zm-9.064 9.569c.397-2.108.322-3.968.36-5.867h3.914v6.683h-4.482c.094-.266.151-.532.208-.816z"/><path fill-rule="evenodd" clip-rule="evenodd" d="M20.207 34.481c1.363 1.253 3.49 1.88 6.38 1.88 2.928 0 5.068-.627 6.418-1.88 1.351-1.253 2.026-3.025 2.026-5.316 0-2.252-.681-4.012-2.044-5.277-1.351-1.266-3.484-1.9-6.4-1.9-2.903 0-5.036.634-6.399 1.9-1.35 1.265-2.026 3.024-2.026 5.277 0 2.279.682 4.05 2.045 5.316zm9.41-2.79c-.619.531-1.629.797-3.03.797-1.388 0-2.392-.272-3.01-.816-.619-.545-.928-1.38-.928-2.506 0-1.114.31-1.943.928-2.488.618-.544 1.622-.816 3.01-.816 1.401 0 2.411.272 3.03.816.618.545.927 1.374.927 2.488 0 1.139-.309 1.98-.928 2.524zm11.533 4.48v-5.526h.994c1.49 1.912 2.431 3.363 3.736 5.561h5.81c-2.04-2.784-3.285-4.423-5.628-6.95v-.686l5.382-6.182h-5.708l-.279.4h-.001v.002c-.897 1.286-1.959 2.81-3.738 4.572-.253 0-.442-.006-.568-.02v-4.954h-4.715c.101 2.455.152 4.752.152 6.891 0 2.14-.05 4.437-.152 6.892h4.715z"/></g><g clip-path="url(#b)"><path d="m79.427 4.831 12.37 5.74-1.493-7.336 22.622 16.255H82.618l-3.19-14.659z" fill="#F90"/><path fill-rule="evenodd" clip-rule="evenodd" d="M105.03 19.49a10.31 10.31 0 0 0-.078-1.333c-.408-3.355-2.32-5.882-4.27-5.644-1.95.238-3.198 3.15-2.79 6.506.025.159.052.316.082.47h7.056z" fill="#fff"/><path fill-rule="evenodd" clip-rule="evenodd" d="M101.205 19.49a4.86 4.86 0 0 0-.028-.872c-.191-1.566-1.08-2.745-1.987-2.635-.906.11-1.487 1.47-1.296 3.035.017.163.04.32.071.472h3.24z" fill="#000"/><path fill-rule="evenodd" clip-rule="evenodd" d="M97.628 19.49a10.599 10.599 0 0 0-.047-.471c-.409-3.355-2.32-5.882-4.27-5.644-1.851.225-3.144 2.965-2.919 6.115h7.236z" fill="#fff"/><path fill-rule="evenodd" clip-rule="evenodd" d="M93.742 19.49a4.87 4.87 0 0 0-.035-.672c-.191-1.566-1.08-2.745-1.987-2.635-.874.107-1.507 1.783-1.38 3.307h3.402z" fill="#000"/></g><g clip-path="url(#c)"><path d="m79.159 4.768 12.482 5.791-1.507-7.402L112.96 19.56H82.378l-3.22-14.792z" fill="#F90"/><path fill-rule="evenodd" clip-rule="evenodd" d="M104.995 19.56c.003-.437-.022-.887-.078-1.345-.413-3.386-2.342-5.935-4.309-5.695-1.967.24-3.228 3.179-2.815 6.564.024.16.051.319.082.475h7.12z" fill="#fff"/><path fill-rule="evenodd" clip-rule="evenodd" d="M101.135 19.56c.017-.28.009-.576-.028-.88-.193-1.58-1.09-2.77-2.005-2.659-.915.112-1.5 1.483-1.308 3.063.017.164.041.323.072.476h3.269z" fill="#000"/><path fill-rule="evenodd" clip-rule="evenodd" d="M97.526 19.56a10.654 10.654 0 0 0-.047-.476c-.412-3.385-2.342-5.935-4.309-5.695-1.868.228-3.172 2.993-2.945 6.17h7.301z" fill="#fff"/><path fill-rule="evenodd" clip-rule="evenodd" d="M93.605 19.56a4.91 4.91 0 0 0-.036-.678c-.192-1.58-1.09-2.77-2.005-2.659-.882.108-1.52 1.8-1.391 3.337h3.432z" fill="#000"/><path d="M116.55 12.952 99.703 19.56h13.575l3.272-6.608z" fill="#F90"/><path d="m116.55 12.952-4.199 1.648 2.577 1.639 1.622-3.287z" fill="#000"/></g><path d="M82.297 19.629 97.886 8.942 76.414 1 67 14.04l7.844-1.96 7.452 7.549z" fill="#C00"/><path d="M80.167 19.485a1.71 1.71 0 0 1 .028-2.418L92.018 5.52a1.71 1.71 0 0 1 2.39 2.447L82.584 19.513a1.71 1.71 0 0 1-2.418-.028z" fill="#E3E3E3"/><path d="m91.64 10.657-1.5-7.5 9.118 6.57-8.236 4.411-8.644 5.52 9.263-9z" fill="#F90"/><path d="M67.786 14.824a1.765 1.765 0 1 1-3.53 0 1.765 1.765 0 0 1 3.53 0z" fill="#E3E3E3"/><defs><clipPath id="a"><path fill="#fff" transform="translate(0 19.1)" d="M0 0h137v20.28H0z"/></clipPath><clipPath id="b"><path fill="#fff" transform="translate(79.427 3.235)" d="M0 0h37.023v16.192H0z"/></clipPath><clipPath id="c"><path fill="#fff" transform="translate(79.16 3.157)" d="M0 0h37.359v16.339H0z"/></clipPath></defs></svg>